<svg width="16" height="17" viewBox="0 0 16 17" fill="none" xmlns="http://www.w3.org/2000/svg">
<path d="M2.60637 16.1781H13.139C14.8744 16.1781 15.7521 15.2866 15.7521 13.5579V2.80507C15.7521 1.06964 14.8744 0.178101 13.139 0.178101H2.60637C0.877725 0.178101 0 1.06283 0 2.80507V13.5579C0 15.3002 0.877725 16.1781 2.60637 16.1781ZM2.63317 14.9735C1.69514 14.9735 1.18593 14.4699 1.18593 13.4899V2.86632C1.18593 1.89312 1.69514 1.3827 2.63317 1.3827H13.1189C14.0369 1.3827 14.5662 1.89312 14.5662 2.86632V13.4899C14.5662 14.4699 14.0369 14.9735 13.1189 14.9735H2.63317Z" fill="#FF9F0A"/>
<path d="M5.33335 12.1764C5.57455 12.1764 5.70186 12.0879 5.88946 11.8294L7.8325 8.9778H7.86598L9.80235 11.8294C9.98328 12.0879 10.1173 12.1764 10.3585 12.1764C10.6868 12.1764 10.928 11.945 10.928 11.6252C10.928 11.4754 10.8878 11.3597 10.794 11.2304L8.58961 8.10668L10.8141 4.96926C10.9146 4.83315 10.9548 4.71065 10.9548 4.57454C10.9548 4.27509 10.7136 4.05051 10.3986 4.05051C10.1642 4.05051 10.0168 4.13218 9.85594 4.38398L7.9665 7.23556H7.92629L6.00336 4.37718C5.83586 4.13218 5.69516 4.05051 5.44055 4.05051C5.12564 4.05051 4.86433 4.29551 4.86433 4.60176C4.86433 4.7651 4.91123 4.87398 5.02514 5.03732L7.14908 8.07261L4.91794 11.2645C4.82413 11.4074 4.78394 11.5026 4.78394 11.6592C4.78394 11.945 5.02514 12.1764 5.33335 12.1764Z" fill="#FF9F0A"/>
</svg>
