<svg width="16" height="19" viewBox="0 0 16 19" fill="none" xmlns="http://www.w3.org/2000/svg">
<path d="M5.51835 15.9304C5.79588 15.9304 5.9766 15.7484 5.97014 15.4949L5.70552 6.32408C5.69907 6.07059 5.51189 5.90161 5.25373 5.90161C4.9762 5.90161 4.79548 6.0771 4.80193 6.33708L5.06656 15.4949C5.07301 15.755 5.25373 15.9304 5.51835 15.9304ZM8.00324 15.9304C8.27428 15.9304 8.46793 15.7484 8.46793 15.4949V6.33708C8.46793 6.0771 8.27428 5.90161 8.00324 5.90161C7.73213 5.90161 7.53849 6.0771 7.53849 6.33708V15.4949C7.53849 15.7484 7.73213 15.9304 8.00324 15.9304ZM10.4817 15.9304C10.7463 15.9304 10.927 15.7614 10.9335 15.5015L11.1981 6.33708C11.2045 6.0771 11.0238 5.90811 10.7527 5.90811C10.4945 5.90811 10.3074 6.07059 10.3009 6.33058L10.0363 15.4949C10.0299 15.7484 10.2041 15.9304 10.4817 15.9304ZM4.40823 3.71775H5.53772V1.93037C5.53772 1.41041 5.8927 1.07243 6.44776 1.07243H9.53933C10.0944 1.07243 10.4493 1.41041 10.4493 1.93037V3.71775H11.5788V1.86537C11.5788 0.708451 10.8366 0 9.60383 0H6.38321C5.15691 0 4.40823 0.708451 4.40823 1.86537V3.71775ZM0.5357 4.28322H15.4643C15.7612 4.28322 16 4.03623 16 3.74375C16 3.44477 15.7612 3.19779 15.4643 3.19779H0.5357C0.251714 3.19779 0 3.45127 0 3.74375C0 4.04273 0.251714 4.28322 0.5357 4.28322ZM4.2146 18.5628H11.7983C12.9084 18.5628 13.6894 17.8023 13.7475 16.6844L14.3606 4.13373H13.2053L12.6245 16.5674C12.5986 17.0939 12.2049 17.4774 11.6885 17.4774H4.30496C3.80153 17.4774 3.40137 17.0873 3.37555 16.5674L2.7624 4.14022H1.64582L2.25897 16.6909C2.31706 17.8088 3.08511 18.5628 4.2146 18.5628Z" fill="black" fill-opacity="0.85"/>
</svg>
