<svg width="16" height="15" viewBox="0 0 16 15" fill="none" xmlns="http://www.w3.org/2000/svg">
<path d="M9.67085 1.4676L15.5983 11.4722C15.7918 11.7948 15.8915 12.1456 15.8915 12.4851C15.8915 13.5319 15.1527 14.3581 13.9274 14.3581H2.06662C0.847131 14.3581 0.108398 13.5319 0.108398 12.4851C0.108398 12.1456 0.202206 11.8004 0.401546 11.4722L6.32897 1.4676C6.69838 0.839488 7.34329 0.528259 7.99991 0.528259C8.65071 0.528259 9.30151 0.839488 9.67085 1.4676ZM7.23186 11.161C7.23186 11.5514 7.58368 11.874 7.99991 11.874C8.41032 11.874 8.76796 11.5571 8.76796 11.161C8.76796 10.7592 8.41621 10.4423 7.99991 10.4423C7.57779 10.4423 7.23186 10.7648 7.23186 11.161ZM7.37259 4.99863L7.46643 8.98233C7.47225 9.32189 7.65986 9.51427 7.99991 9.51427C8.32237 9.51427 8.51587 9.32751 8.52175 8.98233L8.61553 5.00429C8.62141 4.66477 8.35755 4.41578 7.99409 4.41578C7.62468 4.41578 7.36671 4.65911 7.37259 4.99863Z" fill="#FF9F0A"/>
</svg>
