<svg width="16" height="10" viewBox="0 0 16 10" fill="none" xmlns="http://www.w3.org/2000/svg">
<g clip-path="url(#clip0_151_195)">
<path d="M7.91824 9.98429C12.5811 9.98429 15.832 6.17952 15.832 4.99452C15.832 3.8095 12.563 0.00927734 7.91824 0.00927734C3.31895 0.00927734 0 3.8095 0 4.99452C0 6.17952 3.30533 9.98429 7.91824 9.98429ZM7.91824 9.18067C3.98183 9.18067 0.885358 5.84357 0.885358 4.99452C0.885358 4.24991 3.98183 0.808368 7.91824 0.808368C11.8502 0.808368 14.9466 4.24991 14.9466 4.99452C14.9466 5.84357 11.8502 9.18067 7.91824 9.18067ZM7.91824 8.27262C9.73438 8.27262 11.2055 6.79699 11.2055 4.98546C11.2055 3.16932 9.73438 1.69826 7.91824 1.69826C6.10671 1.69826 4.6311 3.16932 4.6311 4.98546C4.6311 6.79699 6.10671 8.27262 7.91824 8.27262ZM7.91824 6.05241C7.32802 6.05241 6.85584 5.57568 6.85584 4.98997C6.85584 4.39974 7.32802 3.92301 7.91824 3.92301C8.50851 3.92301 8.98525 4.39974 8.98525 4.98997C8.98525 5.57568 8.50851 6.05241 7.91824 6.05241Z" fill="black" fill-opacity="0.85"/>
</g>
<defs>
<clipPath id="clip0_151_195">
<rect width="16" height="9.98409" fill="white"/>
</clipPath>
</defs>
</svg>
