<svg width="16" height="13" viewBox="0 0 16 13" fill="none" xmlns="http://www.w3.org/2000/svg">
<g clip-path="url(#clip0_151_196)">
<path d="M3.62295 3.32707C1.94736 4.37758 0.885358 5.73861 0.885358 6.17471C0.885358 7.02371 3.98183 10.3609 7.91824 10.3609C8.74572 10.3609 9.53623 10.2131 10.265 9.96608L10.9199 10.6207C10.0143 10.958 9.00463 11.1645 7.91824 11.1645C3.30533 11.1645 0 7.35971 0 6.17471C0 5.48234 1.13289 3.89734 2.99776 2.70217L3.62295 3.32707ZM15.832 6.17471C15.832 6.84987 14.7767 8.37548 13.0036 9.56188L12.3876 8.94594C13.9579 7.92868 14.9466 6.65446 14.9466 6.17471C14.9466 5.43008 11.8502 1.98854 7.91824 1.98854C7.16478 1.98854 6.4421 2.11464 5.76689 2.32525L5.11488 1.67324C5.97076 1.37064 6.914 1.18945 7.91824 1.18945C12.563 1.18945 15.832 4.98966 15.832 6.17471ZM6.99843 6.701C7.09095 6.86335 7.22578 6.99828 7.38846 7.09084L9.39661 9.09811C8.95354 9.32593 8.45072 9.45281 7.91824 9.45281C6.10671 9.45281 4.6311 7.97718 4.6311 6.16559C4.6311 5.63367 4.75768 5.13137 4.98512 4.68862L6.99843 6.701ZM11.2055 6.16559C11.2055 6.63503 11.1067 7.08187 10.927 7.48538L6.5985 3.15685C7.00201 2.97721 7.44885 2.87844 7.91824 2.87844C9.73438 2.87844 11.2055 4.3495 11.2055 6.16559Z" fill="black" fill-opacity="0.85"/>
<path d="M12.5812 11.2556C12.7311 11.4054 12.9717 11.4145 13.1306 11.2556C13.2941 11.0876 13.2805 10.8606 13.1306 10.7062L3.25549 0.840156C3.11021 0.690324 2.86049 0.685787 2.70612 0.840156C2.55629 0.985445 2.55629 1.2397 2.70612 1.38953L12.5812 11.2556Z" fill="black" fill-opacity="0.85"/>
</g>
<defs>
<clipPath id="clip0_151_196">
<rect width="16" height="12.3451" fill="white"/>
</clipPath>
</defs>
</svg>
